name rise30.6535peak61.5555fall82.9339.mot
datacolumns 19
datarows 12
range 15.34827200000000 15.36660700000000
endheader
time	ground_force1_vx	ground_force1_vy	ground_force1_vz	ground_force1_px	ground_force1_py	ground_force1_pz	ground_force2_vx	ground_force2_vy	ground_force2_vz	ground_force2_px	ground_force2_py	ground_force2_pz	ground_torque1_x	ground_torque1_y	ground_torque1_z	ground_torque2_x	ground_torque2_y	ground_torque2_z	
15.34827200000000	-34.25659700000000	808.87618799999996	43.90334500000000	0.17478000000000	0.00000000000000	0.08823900000000	2.37896100000000	37.29946800000000	0.50897200000000	0.39245900000000	0.00000000000000	-0.09472700000000	0.00000000000000	21.98570200000000	0.00000000000000	0.00000000000000	1.20841400000000	0.00000000000000	
15.34994100000000	-34.83689500000000	807.51156300000002	43.84118100000000	0.17383100000000	0.00000000000000	0.08823000000000	2.53117900000000	43.13853300000000	0.61355500000000	0.39498200000000	0.00000000000000	-0.09464100000000	0.00000000000000	21.91338300000000	0.00000000000000	0.00000000000000	1.35891400000000	0.00000000000000	
15.35160200000000	-35.43203000000000	806.02443400000004	43.76394600000000	0.17288500000000	0.00000000000000	0.08822200000000	2.62911300000000	48.90858400000000	0.72200300000000	0.39734300000000	0.00000000000000	-0.09455900000000	0.00000000000000	21.83996500000000	0.00000000000000	0.00000000000000	1.49739100000000	0.00000000000000	
15.35328100000000	-36.04207600000000	804.41254900000001	43.67124300000000	0.17194300000000	0.00000000000000	0.08821400000000	2.67100400000000	54.52738800000000	0.83241100000000	0.39955600000000	0.00000000000000	-0.09448200000000	0.00000000000000	21.76552800000000	0.00000000000000	0.00000000000000	1.62128700000000	0.00000000000000	
15.35493500000000	-36.66704800000000	802.67367100000001	43.56270200000000	0.17100400000000	0.00000000000000	0.08820800000000	2.65871000000000	59.93787700000000	0.94293800000000	0.40163400000000	0.00000000000000	-0.09440900000000	0.00000000000000	21.69014900000000	0.00000000000000	0.00000000000000	1.72914800000000	0.00000000000000	
15.35660600000000	-37.30690000000000	800.80558599999995	43.43797500000000	0.17006900000000	0.00000000000000	0.08820200000000	2.59739700000000	65.10938700000000	1.05187600000000	0.40358500000000	0.00000000000000	-0.09434000000000	0.00000000000000	21.61390100000000	0.00000000000000	0.00000000000000	1.82061200000000	0.00000000000000	
15.35826700000000	-37.96152500000000	798.80610200000001	43.29674200000000	0.16913700000000	0.00000000000000	0.08819600000000	2.49498300000000	70.03650900000000	1.15769300000000	0.40542100000000	0.00000000000000	-0.09427400000000	0.00000000000000	21.53684900000000	0.00000000000000	0.00000000000000	1.89630000000000	0.00000000000000	
15.35994100000000	-38.63075100000000	796.67304799999999	43.13870700000000	0.16820900000000	0.00000000000000	0.08819200000000	2.36144300000000	74.73604100000000	1.25906300000000	0.40715000000000	0.00000000000000	-0.09421200000000	0.00000000000000	21.45905400000000	0.00000000000000	0.00000000000000	1.95764600000000	0.00000000000000	
15.36160800000000	-39.31433800000000	794.40428299999996	42.96360500000000	0.16728500000000	0.00000000000000	0.08818700000000	2.20803400000000	79.24263500000001	1.35486800000000	0.40877800000000	0.00000000000000	-0.09415400000000	0.00000000000000	21.38057000000000	0.00000000000000	0.00000000000000	2.00667900000000	0.00000000000000	
15.36327700000000	-40.01198000000000	791.99769300000003	42.77120100000000	0.16636500000000	0.00000000000000	0.08818300000000	2.04652800000000	83.60370300000000	1.44418600000000	0.41031300000000	0.00000000000000	-0.09409800000000	0.00000000000000	21.30144400000000	0.00000000000000	0.00000000000000	2.04579100000000	0.00000000000000	
15.36494000000000	-40.72330000000000	789.45119899999997	42.56128700000000	0.16544800000000	0.00000000000000	0.08817900000000	1.88852300000000	87.87416100000000	1.52626500000000	0.41176000000000	0.00000000000000	-0.09404500000000	0.00000000000000	21.22171400000000	0.00000000000000	0.00000000000000	2.07751400000000	0.00000000000000	
15.36660700000000	-41.44784800000000	786.76275299999998	42.33368900000000	0.16453500000000	0.00000000000000	0.08817600000000	1.74484900000000	92.11144100000000	1.60049000000000	0.41312400000000	0.00000000000000	-0.09399600000000	0.00000000000000	21.14141200000000	0.00000000000000	0.00000000000000	2.10431400000000	0.00000000000000	
